<?xml version="1.0" encoding="UTF-8"?>
<svg id="Layer_1" data-name="Layer 1" xmlns="http://www.w3.org/2000/svg" xmlns:xlink="http://www.w3.org/1999/xlink" viewBox="0 0 432.25 376.54">
  <defs>
    <linearGradient id="linear-gradient" x1="402.1" y1="188.45" x2="432.25" y2="188.45" gradientUnits="userSpaceOnUse">
      <stop offset="0" stop-color="#a42051"/>
      <stop offset=".46" stop-color="#b4504e"/>
      <stop offset="1" stop-color="#ca8a4c"/>
    </linearGradient>
    <linearGradient id="linear-gradient-2" x1="359.93" y1="188.54" x2="391.08" y2="188.54" xlink:href="#linear-gradient"/>
    <linearGradient id="linear-gradient-3" x1="317.77" y1="188.62" x2="349.97" y2="188.62" xlink:href="#linear-gradient"/>
    <linearGradient id="linear-gradient-4" x1="275.6" y1="188.71" x2="309.2" y2="188.71" xlink:href="#linear-gradient"/>
    <linearGradient id="linear-gradient-5" x1="233.45" y1="188.79" x2="268.76" y2="188.79" xlink:href="#linear-gradient"/>
    <linearGradient id="linear-gradient-6" x1="191.29" y1="188.88" x2="228.68" y2="188.88" xlink:href="#linear-gradient"/>
    <linearGradient id="linear-gradient-7" x1="149.12" y1="188.98" x2="188.91" y2="188.98" xlink:href="#linear-gradient"/>
    <linearGradient id="linear-gradient-8" x1="106.96" y1="189.07" x2="149.51" y2="189.07" xlink:href="#linear-gradient"/>
    <linearGradient id="linear-gradient-9" x1="64.79" y1="189.17" x2="110.44" y2="189.17" xlink:href="#linear-gradient"/>
    <linearGradient id="linear-gradient-10" x1="22.64" y1="189.26" x2="71.76" y2="189.26" xlink:href="#linear-gradient"/>
    <linearGradient id="linear-gradient-11" x1="0" y1="188.27" x2="33.24" y2="188.27" xlink:href="#linear-gradient"/>
  </defs>
  <path d="m432.25,177.24c-.19,7.53-.29,15.09-.29,22.7v.08c-2.75,6.39-7.88,11.92-15.38,15.09l-14.26,6.03c-.14-7.03-.23-14.11-.23-21.21,0-14.87.34-29.61,1-44.18l13.48,5.7c7.76,3.28,12.98,9.09,15.67,15.78Z" fill="url(#linear-gradient)"/>
  <path d="m391.08,150.66c-.85,16.2-1.29,32.66-1.29,49.28,0,8.83.13,17.62.37,26.35l-29.46,12.47c-.51-12.82-.77-25.78-.77-38.82,0-20.82.66-41.41,1.96-61.62l29.19,12.34Z" fill="url(#linear-gradient-2)"/>
  <path d="m349.97,133.28c-1.54,21.77-2.33,44.05-2.33,66.66,0,14.79.34,29.44,1.01,43.91l-29.25,12.37c-1.08-18.49-1.63-37.28-1.63-56.28,0-26.81,1.08-53.22,3.22-78.94l28.98,12.28Z" fill="url(#linear-gradient-3)"/>
  <path d="m309.2,116.02c-2.46,27.21-3.73,55.32-3.73,83.92,0,20.77.68,41.27,2,61.35l-29.06,12.29c-1.85-24.04-2.8-48.67-2.8-73.64,0-32.81,1.63-65.03,4.78-96.1l28.82,12.18Z" fill="url(#linear-gradient-4)"/>
  <path d="m268.76,98.92c-3.59,32.47-5.45,66.39-5.45,101.03,0,26.76,1.11,53.08,3.28,78.63l-28.86,12.21c-2.83-29.44-4.28-59.89-4.28-90.84,0-38.84,2.28-76.88,6.69-113.14l28.62,12.12Z" fill="url(#linear-gradient-5)"/>
  <path d="m228.68,81.96c-4.96,37.55-7.53,77.26-7.53,117.99,0,32.79,1.67,64.91,4.91,95.78l-28.69,12.13c-4.01-34.69-6.08-70.92-6.08-107.91,0-44.92,3.06-88.75,8.93-130.04l28.46,12.05Z" fill="url(#linear-gradient-6)"/>
  <path d="m188.91,65.13c-6.53,42.43-9.93,87.95-9.93,134.82,0,38.86,2.33,76.8,6.85,112.8l-28.51,12.05c-5.41-39.76-8.21-81.8-8.21-124.86,0-51.05,3.94-100.69,11.47-146.79l28.32,11.97Z" fill="url(#linear-gradient-7)"/>
  <path d="m149.51,48.46c-8.32,47.08-12.68,98.42-12.68,151.48,0,44.97,3.12,88.72,9.16,129.67l-28.38,12c-7-44.65-10.64-92.5-10.64-141.67,0-57.26,4.96-112.71,14.37-163.41l28.17,11.92Z" fill="url(#linear-gradient-8)"/>
  <path d="m110.44,31.93c-10.33,51.49-15.78,108.67-15.78,168.01,0,51.17,4.05,100.71,11.79,146.38l-28.22,11.94c-8.8-49.31-13.43-102.97-13.43-158.32,0-63.52,6.1-124.82,17.62-179.87l28.03,11.86Z" fill="url(#linear-gradient-9)"/>
  <path d="m71.76,15.57c-12.57,55.62-19.26,118.68-19.26,184.37,0,57.41,5.1,112.79,14.79,162.96l-26.81,11.34c-.42.18-.85.35-1.27.51-10.84-53.72-16.57-113.22-16.57-174.81,0-69.88,7.37-137.05,21.22-196.18l27.9,11.81Z" fill="url(#linear-gradient-10)"/>
  <path d="m33.24.3c-14.92,59.23-22.91,127.85-22.91,199.64,0,62.67,6.08,122.91,17.57,176.6-14.87-.63-27.9-12.81-27.9-29.12V29.15C0,10.9,16.3-2.18,33.24.3Z" fill="url(#linear-gradient-11)"/>
</svg>